<svg width="73" height="87" viewBox="0 0 73 87" fill="none" xmlns="http://www.w3.org/2000/svg">
<line y1="85.5" x2="72" y2="85.5" stroke="black"/>
<line x1="71.5081" y1="85.0894" x2="61.5081" y2="30.0894" stroke="black"/>
<line x1="0.508255" y1="85.2566" x2="10.5083" y2="30.9095" stroke="black"/>
<line x1="10" y1="30.5" x2="62" y2="30.5" stroke="black"/>
<path d="M29.5 48C29.5 50.4415 27.3073 52.5 24.5 52.5C21.6927 52.5 19.5 50.4415 19.5 48C19.5 45.5585 21.6927 43.5 24.5 43.5C27.3073 43.5 29.5 45.5585 29.5 48Z" fill="white" stroke="black"/>
<path d="M50.5 48C50.5 50.4415 48.3073 52.5 45.5 52.5C42.6927 52.5 40.5 50.4415 40.5 48C40.5 45.5585 42.6927 43.5 45.5 43.5C48.3073 43.5 50.5 45.5585 50.5 48Z" fill="white" stroke="black"/>
<line x1="10" y1="79.5" x2="43" y2="79.5" stroke="black"/>
<line x1="48" y1="79.5" x2="56" y2="79.5" stroke="black"/>
<path d="M24 43C25.4414 18.1803 25.008 0.936289 35.7333 1.00541C46.2488 0.616556 44.057 21.2682 46 43" stroke="black"/>
</svg>
