<svg width="112" height="87" viewBox="0 0 112 87" fill="none" xmlns="http://www.w3.org/2000/svg">
<path d="M9.44532 56.5168C15.0597 65.0574 2.42698 66.4812 2.42698 66.4812C7.54683 67.6485 16.4636 66.4812 16.4636 66.4812C16.4636 66.4812 22.4233 64.5159 24.8855 62.2107C36.6625 65.6377 46.8359 64.6463 54.3621 60.7874C62.7814 55.2187 64.3184 52.8444 66.995 45.1287C70.0349 34.4579 69.658 25.6391 65.5913 16.6587C58.2736 7.63999 53.8374 4.23893 40.3256 1C23.0356 1.47603 18.7048 4.33424 12.2526 8.118C1.79909 15.5944 0.815064 29.4076 1.02342 30.8938C2.1276 40.9077 3.83089 47.9761 9.44532 56.5168Z" stroke="black"/>
<path d="M69.4512 25.1598C78.2824 20.9712 82.3451 22.092 89.2563 22.263C99.4208 24.7457 106.007 29.2952 110.476 43.9913C112.123 56.3054 110.165 62.0757 100.574 70.0657C98.8692 82.0346 101.911 83.6017 107.647 86C99.1925 85.607 95.6573 83.8487 92.0858 77.3085C81.1272 83.2587 72.9417 83.2692 63.7924 80.206C58.4639 77.939 52.9592 71.5145 52.4751 70.0657C51.991 68.6169 50.708 68.3541 51.0604 62.8228" stroke="black"/>
<line x1="10" y1="21.5" x2="46" y2="21.5" stroke="black"/>
<line x1="49" y1="21.5" x2="57" y2="21.5" stroke="black"/>
<line x1="10" y1="33.5" x2="57" y2="33.5" stroke="black"/>
<line x1="28" y1="44.5" x2="57" y2="44.5" stroke="black"/>
<line x1="73" y1="44.5" x2="98" y2="44.5" stroke="black"/>
<line x1="69" y1="59.5" x2="96" y2="59.5" stroke="black"/>
</svg>
