<svg width="87" height="91" viewBox="0 0 87 91" fill="none" xmlns="http://www.w3.org/2000/svg">
<rect x="50.5" y="39.5" width="10" height="50" fill="#DFDFDF" stroke="black"/>
<line x1="18" y1="38.5" x2="69" y2="38.5" stroke="black"/>
<line x1="75" y1="38.5" x2="78" y2="38.5" stroke="black"/>
<line x1="80" y1="38.5" x2="86" y2="38.5" stroke="black"/>
<line x1="85.5001" y1="37" x2="85.5001" y2="6" stroke="black"/>
<line x1="83" y1="6.5" x2="18" y2="6.5" stroke="black"/>
<line y1="-0.5" x2="23.5265" y2="-0.5" transform="matrix(-0.725889 0.687812 -0.725889 -0.687812 18.0777 6.39404)" stroke="black"/>
<line y1="-0.5" x2="23.5265" y2="-0.5" transform="matrix(0.725889 0.687812 -0.725889 0.687812 1 22.5762)" stroke="black"/>
<line x1="51.5" y1="9" x2="51.5" y2="1" stroke="black"/>
<line x1="52" y1="3.5" x2="58" y2="3.5" stroke="black"/>
<line x1="58.5" y1="1" x2="58.5" y2="6" stroke="black"/>
<line x1="26" y1="15.5" x2="75" y2="15.5" stroke="black"/>
<line x1="32.0001" y1="25.5" x2="61.0001" y2="25.5" stroke="black"/>
</svg>
